<?xml version="1.0" encoding="utf-8"?>
<!-- Generator: Adobe Illustrator 19.0.0, SVG Export Plug-In . SVG Version: 6.00 Build 0)  -->
<svg version="1.1" id="Capa_1" xmlns="http://www.w3.org/2000/svg" xmlns:xlink="http://www.w3.org/1999/xlink" x="0px" y="0px"
	 viewBox="-75 166.7 3682.7 2930.7" style="enable-background:new -75 166.7 3682.7 2930.7;" xml:space="preserve">
<g>
	<g>
		<path d="M1766.3,758.3L452.9,1841.1c0,1.5-0.4,3.8-1.2,6.8c-0.8,3-1.2,5.2-1.2,6.8v1096.4c0,39.6,14.5,73.9,43.4,102.8
			c28.9,28.9,63.2,43.5,102.8,43.5h877.1v-877.2h584.8v877.2h877.1c39.6,0,73.9-14.5,102.8-43.5c28.9-28.9,43.5-63.2,43.5-102.8
			V1854.7c0-6.1-0.8-10.7-2.3-13.7L1766.3,758.3z"/>
		<path d="M3582.3,1594.4l-500.2-415.7v-932c0-21.3-6.8-38.8-20.6-52.5c-13.6-13.7-31.2-20.5-52.5-20.5h-438.6
			c-21.3,0-38.8,6.8-52.6,20.5c-13.7,13.7-20.5,31.2-20.5,52.5v445.4l-557.3-466c-48.7-39.6-106.6-59.4-173.6-59.4
			c-67,0-124.9,19.8-173.6,59.4L-49.6,1594.4c-15.2,12.2-23.6,28.5-25.1,49.1c-1.5,20.5,3.8,38.5,16,53.7l141.6,169
			c12.2,13.7,28.2,22.1,48,25.1c18.3,1.5,36.6-3.8,54.8-16l1580.7-1318l1580.7,1318c12.2,10.6,28.2,15.9,48,15.9h6.9
			c19.8-3,35.7-11.4,48-25.1l141.6-169c12.2-15.2,17.5-33.2,15.9-53.7C3605.8,1622.9,3597.5,1606.6,3582.3,1594.4z"/>
	</g>
</g>
</svg>
